<?xml version="1.0" standalone="no"?>
<!DOCTYPE svg PUBLIC "-//W3C//DTD SVG 20010904//EN"
 "http://www.w3.org/TR/2001/REC-SVG-20010904/DTD/svg10.dtd">
<svg version="1.0" xmlns="http://www.w3.org/2000/svg"
 width="720.000000pt" height="720.000000pt" viewBox="0 0 720.000000 720.000000"
 preserveAspectRatio="xMidYMid meet">
<metadata>
Created by potrace 1.11, written by Peter Selinger 2001-2013
</metadata>
<g transform="translate(0.000000,720.000000) scale(0.100000,-0.100000)"
fill="#000000" stroke="none">
<path d="M1570 7181 c-30 -10 -73 -27 -95 -38 -49 -26 -162 -142 -198 -204
-84 -143 -155 -370 -172 -544 l-5 -50 29 75 c51 133 172 359 218 410 116 126
175 162 268 162 162 0 260 -90 242 -221 -2 -21 -60 -150 -127 -287 -67 -137
-134 -274 -148 -304 -13 -30 -40 -89 -59 -130 -168 -364 -289 -707 -319 -905
-10 -65 -10 -446 0 -505 12 -77 46 -181 82 -251 29 -58 120 -181 147 -200 5
-4 -2 -31 -16 -60 -33 -72 -84 -233 -91 -289 -3 -25 -8 -56 -11 -70 -9 -43 -6
-223 4 -275 45 -233 186 -349 421 -348 47 1 102 4 123 7 67 11 197 58 254 93
30 18 57 33 60 33 9 0 160 115 202 154 128 121 188 186 287 313 94 123 114
147 119 142 4 -4 -118 -374 -140 -424 -7 -16 -32 -75 -55 -130 -99 -232 -225
-453 -344 -600 -76 -93 -99 -115 -115 -111 -9 3 -27 7 -41 10 -78 15 -138 27
-160 32 -14 3 -83 7 -155 9 -221 7 -357 -37 -517 -166 -27 -22 -28 -22 -48 -4
-45 41 -107 158 -127 240 -44 186 -6 389 98 525 77 100 63 94 -73 -30 -165
-151 -244 -321 -247 -531 -3 -166 56 -345 154 -471 40 -51 40 -53 15 -163 -11
-49 -16 -275 -7 -345 19 -149 110 -375 184 -456 33 -36 98 -87 113 -90 3 0 12
-4 20 -7 21 -9 93 -23 108 -21 6 1 23 2 37 3 27 1 35 21 9 21 -31 0 -135 64
-183 112 -27 27 -64 81 -84 121 -59 119 -69 172 -73 362 -3 145 0 179 16 228
10 32 20 61 23 63 2 2 42 -13 88 -34 75 -35 117 -49 199 -69 45 -10 284 -12
335 -1 28 5 64 12 80 14 65 11 155 39 249 79 l99 42 91 -23 c50 -13 107 -27
126 -30 19 -3 41 -7 48 -9 20 -7 151 -18 208 -18 45 0 121 8 176 18 167 30
357 205 480 440 63 120 135 324 152 430 3 17 8 47 11 69 4 21 8 46 10 55 2 9
9 61 16 114 7 54 16 94 20 90 4 -5 10 -80 14 -168 11 -277 21 -432 34 -500 12
-68 5 -253 -14 -345 -3 -14 -7 -34 -9 -45 -15 -77 -102 -354 -122 -394 -8 -14
-14 -31 -14 -37 0 -6 -23 -66 -51 -135 -135 -333 -161 -444 -164 -699 -4 -263
25 -419 101 -546 73 -122 163 -190 330 -250 200 -72 260 -88 414 -106 112 -13
220 0 141 17 -11 3 -31 8 -43 11 -13 3 -27 6 -33 8 -15 3 -88 27 -105 33 -8 3
-20 7 -25 8 -6 2 -58 21 -116 44 -177 69 -294 152 -343 242 l-28 51 5 167 c9
263 58 490 148 688 10 23 19 44 19 47 0 3 11 29 24 58 56 126 95 223 146 365
13 35 26 63 30 63 4 0 11 -20 14 -43 13 -88 17 -104 52 -216 49 -156 129 -322
196 -406 159 -198 329 -281 594 -290 125 -4 272 50 439 162 56 37 55 39 -10
18 -96 -33 -290 -49 -375 -31 -14 3 -38 9 -55 12 -34 7 -147 53 -155 63 -3 3
-17 13 -32 21 -34 19 -124 104 -167 159 -72 91 -175 323 -198 446 -4 22 -8
108 -8 190 0 125 4 163 22 226 49 168 143 326 282 471 l45 48 35 -22 c87 -52
243 -119 311 -133 8 -2 51 -15 95 -28 210 -66 340 -89 515 -89 157 0 249 20
359 77 205 108 364 376 447 755 25 117 27 326 3 430 -61 268 -237 415 -501
419 -53 1 -118 -4 -145 -10 -70 -17 -158 -64 -210 -112 -41 -38 -103 -128
-103 -151 0 -5 24 13 53 41 158 149 332 140 495 -27 104 -106 151 -255 130
-413 -22 -171 -133 -390 -232 -459 -17 -12 -33 -25 -36 -29 -3 -3 -24 -16 -47
-28 -158 -80 -381 -56 -613 65 -137 72 -134 58 -42 166 88 105 146 188 185
263 82 157 48 336 -102 535 -83 110 -167 191 -286 275 -38 27 -72 50 -74 52
-2 1 12 20 32 42 26 29 43 64 63 127 26 87 32 147 37 369 2 80 6 106 22 130
13 19 20 48 21 85 2 78 3 80 17 80 18 1 46 44 55 87 7 32 15 41 50 58 23 11
49 30 57 43 35 50 143 80 215 61 41 -11 90 -38 115 -64 82 -82 154 -329 133
-453 -11 -65 -50 -142 -95 -188 -38 -39 -144 -100 -188 -108 -11 -2 -38 -9
-60 -15 -22 -6 -62 -12 -88 -13 -26 -2 -46 -7 -44 -12 5 -16 79 -37 142 -41
204 -13 392 120 459 322 53 163 66 381 32 562 -12 61 -69 161 -127 220 -105
109 -279 172 -474 174 -266 1 -466 -140 -549 -390 -20 -59 -23 -88 -24 -228
-1 -213 -9 -306 -32 -378 -39 -119 -100 -194 -190 -235 -153 -71 -244 -23
-347 183 -43 85 -83 224 -83 286 0 21 13 63 29 96 34 67 43 111 46 203 1 46 9
83 29 128 15 35 34 96 42 135 15 71 20 218 10 267 -3 14 -8 39 -12 55 -17 88
-87 248 -144 329 -84 120 -229 234 -378 297 -71 30 -86 33 -200 35 -133 3
-176 -7 -283 -60 -127 -64 -260 -176 -323 -270 -47 -71 -111 -200 -127 -256
-16 -56 -14 -46 -23 -103 -4 -27 -9 -58 -11 -69 -16 -84 8 -259 49 -352 27
-61 29 -72 31 -163 1 -86 4 -98 40 -168 l38 -76 -16 -73 c-57 -267 -276 -480
-529 -517 -122 -17 -285 -5 -314 24 -3 3 31 48 77 99 318 356 447 542 513 740
32 93 36 118 37 200 1 171 -141 340 -286 340 -65 0 -133 -41 -174 -104 -36
-55 -66 -138 -51 -138 6 0 10 3 10 8 0 13 104 113 133 129 74 38 149 7 192
-77 49 -96 41 -199 -26 -363 -63 -155 -129 -235 -333 -408 -78 -65 -172 -147
-210 -183 -38 -37 -75 -66 -82 -66 -30 0 -91 167 -119 325 -13 72 -14 402 -1
460 52 233 76 304 183 540 52 116 103 228 113 250 9 22 24 56 33 75 92 209
162 412 173 505 29 242 -39 394 -203 459 -68 26 -238 30 -313 7z m325 -3235
c22 -10 76 -19 120 -22 44 -2 91 -6 105 -9 14 -3 76 -6 138 -6 61 -1 112 -6
112 -10 0 -5 -5 -9 -10 -9 -6 0 -20 -9 -32 -20 -12 -11 -40 -32 -62 -47 -23
-15 -43 -30 -46 -33 -29 -30 -176 -98 -250 -115 -8 -2 -31 -9 -50 -14 -106
-33 -165 8 -190 132 -13 63 -16 188 -6 205 6 10 73 -11 171 -52z m2499 -94 c3
-5 26 -9 53 -10 66 -4 76 -8 95 -41 15 -28 82 -71 109 -71 19 0 59 -41 59 -60
0 -10 12 -38 26 -64 14 -25 27 -54 28 -64 4 -24 -27 -129 -52 -178 -39 -77
-44 -76 -109 23 -69 104 -114 184 -181 319 -57 116 -69 154 -48 154 8 0 17 -4
20 -8z m-1159 -244 c-10 -202 -16 -251 -46 -397 -52 -256 -142 -459 -261 -586
-77 -83 -220 -163 -265 -148 -16 6 -8 24 57 123 84 128 129 207 215 380 98
196 187 411 265 643 18 53 35 97 37 97 2 0 1 -51 -2 -112z m870 -422 c22 -54
63 -139 92 -189 59 -100 60 -94 -6 -167 -17 -19 -52 -65 -78 -102 -25 -38 -49
-66 -51 -63 -3 3 -6 147 -8 321 -1 174 2 312 6 307 4 -4 24 -52 45 -107z"/>
</g>
</svg>
